# xmcd
#
# Track frame offsets: 
#        150
#        12102
#        24609
#        40914
#        55341
#        69117
#        79961
#        89569
#        99036
#        111618
#        122749
#        136249
#        145345
#        159561
#
# Disc length: 2338 seconds
#
# Revision: 0
# Processed by: cddbd v1.4PL0 Copyright (c) Steve Scherf et al.
# Submitted via: ExactAudioCopy v0.90b4
#
DISCID=b909200e
DTITLE=Hank Snow - Christmas With Hank Snow
DYEAR=1900
DGENRE=Country
TTITLE0=Little Stranger (In A Manger)
TTITLE1=Christmas Roses
TTITLE2=Silent Night
TTITLE3=C-H-R-I-S-T-M-A-S
TTITLE4=White Christmas
TTITLE5=Blue Christmas
TTITLE6=The Reindeer Boogie
TTITLE7=Frosty The Snow Man
TTITLE8=Christmas Wants
TTITLE9=Rudolph The Red-Nosed Reindeer
TTITLE10=God Is My Santa Claus
TTITLE11=The Christmas Cannonball
TTITLE12=A Letter To Santa Claus
TTITLE13=Nestor, The Long Eared Christmas Donkey
EXTD=
EXTT0=
EXTT1=
EXTT2=
EXTT3=
EXTT4=
EXTT5=
EXTT6=
EXTT7=
EXTT8=
EXTT9=
EXTT10=
EXTT11=
EXTT12=
EXTT13=
PLAYORDER=
